<svg width="70" height="15" viewBox="0 0 70 15" fill="none" xmlns="http://www.w3.org/2000/svg">
<path d="M3.39824 13.3343L4.34616 9.23639L1.16699 6.48014L5.36699 6.11556L7.00033 2.25098L8.63366 6.11556L12.8337 6.48014L9.65449 9.23639L10.6024 13.3343L7.00033 11.1614L3.39824 13.3343Z" fill="#67BBA0"/>
<path d="M17.3982 13.3343L18.3462 9.23639L15.167 6.48014L19.367 6.11556L21.0003 2.25098L22.6337 6.11556L26.8337 6.48014L23.6545 9.23639L24.6024 13.3343L21.0003 11.1614L17.3982 13.3343Z" fill="#67BBA0"/>
<path d="M31.3982 13.3343L32.3462 9.23639L29.167 6.48014L33.367 6.11556L35.0003 2.25098L36.6337 6.11556L40.8337 6.48014L37.6545 9.23639L38.6024 13.3343L35.0003 11.1614L31.3982 13.3343Z" fill="#67BBA0"/>
<path d="M45.3982 13.3343L46.3462 9.23639L43.167 6.48014L47.367 6.11556L49.0003 2.25098L50.6337 6.11556L54.8337 6.48014L51.6545 9.23639L52.6024 13.3343L49.0003 11.1614L45.3982 13.3343Z" fill="#67BBA0"/>
<path d="M59.3982 13.3343L60.3462 9.23639L57.167 6.48014L61.367 6.11556L63.0003 2.25098L64.6337 6.11556L68.8337 6.48014L65.6545 9.23639L66.6024 13.3343L63.0003 11.1614L59.3982 13.3343Z" fill="#67BBA0"/>
</svg>
