<svg width="17" height="16" viewBox="0 0 17 16" fill="none" xmlns="http://www.w3.org/2000/svg">
<g clip-path="url(#clip0_6902_520)">
<path d="M15.6368 7.28232C15.1745 6.68351 14.3979 6.29657 13.6583 6.29657H11.5384L12.801 3.64854C13.1788 2.85616 12.8586 1.9461 12.0041 1.38401C11.2014 0.856008 10.3022 0.874165 9.81759 1.42816L5.36841 6.51338C5.11931 6.19763 4.73369 5.99438 4.30128 5.99438H2.35906C1.60969 5.99438 1 6.60407 1 7.35348V14.4972C1 15.2466 1.60969 15.8563 2.35906 15.8563H4.30128C4.68353 15.8563 5.02919 15.6974 5.27638 15.4425C5.87597 15.8229 6.79431 15.8579 7.55759 15.8579C7.64616 15.8579 7.73278 15.8575 7.81641 15.857C7.88975 15.8566 7.96028 15.8562 8.02728 15.8562H12.4703C13.5804 15.8562 14.4131 15.0101 14.815 13.4738L16.003 8.93201C16.1511 8.36582 16.021 7.77995 15.6368 7.28232ZM4.66034 14.4972C4.66034 14.6952 4.49928 14.8562 4.30128 14.8562H2.35906C2.16106 14.8562 2 14.6952 2 14.4972V7.35345C2 7.15545 2.16106 6.99435 2.35906 6.99435H4.30128C4.49928 6.99435 4.66034 7.15545 4.66034 7.35345V14.4972ZM15.0355 8.67898L13.8475 13.2208C13.6524 13.9669 13.255 14.8562 12.4703 14.8562H8.02728C7.95856 14.8562 7.88619 14.8566 7.81097 14.857C7.20062 14.8603 6.06497 14.8665 5.73519 14.5386C5.69631 14.4999 5.66031 14.4491 5.66031 14.3401V7.69838L10.5702 2.08663C10.7053 1.9322 11.1103 1.99301 11.4545 2.21945C11.5715 2.29638 12.1425 2.7061 11.8983 3.21813L10.2948 6.58135C10.2209 6.73629 10.2316 6.91823 10.3232 7.06338C10.4148 7.20854 10.5744 7.29654 10.7461 7.29654H13.6583C14.0926 7.29654 14.5696 7.53638 14.8453 7.89341C14.9802 8.06807 15.1226 8.3461 15.0355 8.67898Z" fill="black"/>
</g>
<defs>
<clipPath id="clip0_6902_520">
<rect width="16" height="16" fill="white" transform="translate(0.5)"/>
</clipPath>
</defs>
</svg>
