<svg width="17" height="16" viewBox="0 0 17 16" fill="none" xmlns="http://www.w3.org/2000/svg">
<g clip-path="url(#clip0_6902_524)">
<path fill-rule="evenodd" clip-rule="evenodd" d="M7.83333 1C3.864 1 0.666666 3.928 0.666666 7.5C0.666666 9.23 1.41267 10.806 2.63533 11.974L2.338 14.0973C2.31267 14.2813 2.39067 14.4647 2.54133 14.5727C2.69267 14.6813 2.89067 14.6967 3.05667 14.614L5.19467 13.5447C6.01067 13.838 6.90133 14 7.83333 14C11.8027 14 15 11.072 15 7.5C15 3.928 11.8027 1 7.83333 1ZM7.83333 2C11.2233 2 14 4.44933 14 7.5C14 10.5507 11.2233 13 7.83333 13C6.95067 13 6.11067 12.834 5.35 12.5347C5.218 12.4827 5.07 12.4893 4.94333 12.5527L3.46 13.294L3.662 11.8527C3.68533 11.686 3.62333 11.5193 3.49733 11.4087C2.37067 10.414 1.66667 9.03133 1.66667 7.5C1.66667 4.44933 4.44333 2 7.83333 2Z" fill="black"/>
</g>
<defs>
<clipPath id="clip0_6902_524">
<rect width="16" height="16" fill="white" transform="translate(0.5)"/>
</clipPath>
</defs>
</svg>
