<svg width="18" height="19" viewBox="0 0 18 19" fill="none" xmlns="http://www.w3.org/2000/svg">
<path d="M6.75 15.6875C6.75 15.91 6.68402 16.1275 6.5604 16.3125C6.43679 16.4975 6.26109 16.6417 6.05552 16.7269C5.84995 16.812 5.62375 16.8343 5.40552 16.7909C5.18729 16.7475 4.98684 16.6403 4.8295 16.483C4.67217 16.3257 4.56502 16.1252 4.52162 15.907C4.47821 15.6887 4.50049 15.4625 4.58564 15.257C4.67078 15.0514 4.81498 14.8757 4.99998 14.7521C5.18499 14.6285 5.4025 14.5625 5.625 14.5625C5.92337 14.5625 6.20952 14.681 6.4205 14.892C6.63147 15.103 6.75 15.3891 6.75 15.6875ZM12.9375 14.5625C12.715 14.5625 12.4975 14.6285 12.3125 14.7521C12.1275 14.8757 11.9833 15.0514 11.8981 15.257C11.813 15.4625 11.7907 15.6887 11.8341 15.907C11.8775 16.1252 11.9847 16.3257 12.142 16.483C12.2993 16.6403 12.4998 16.7475 12.718 16.7909C12.9363 16.8343 13.1625 16.812 13.368 16.7269C13.5736 16.6417 13.7493 16.4975 13.8729 16.3125C13.9965 16.1275 14.0625 15.91 14.0625 15.6875C14.0625 15.3891 13.944 15.103 13.733 14.892C13.522 14.681 13.2359 14.5625 12.9375 14.5625ZM16.1297 5.71719L14.2734 12.2141C14.1715 12.5663 13.9581 12.8759 13.6652 13.0965C13.3724 13.3171 13.0159 13.4367 12.6492 13.4375H5.91328C5.54663 13.4367 5.19013 13.3171 4.89727 13.0965C4.6044 12.8759 4.39099 12.5663 4.28906 12.2141L2.43281 5.72422V5.71016L1.74375 3.3125H0.5625C0.413316 3.3125 0.270242 3.25324 0.164752 3.14775C0.0592632 3.04226 0 2.89918 0 2.75C0 2.60082 0.0592632 2.45774 0.164752 2.35225C0.270242 2.24676 0.413316 2.1875 0.5625 2.1875H1.74375C1.98809 2.18839 2.22558 2.2683 2.42074 2.41531C2.61591 2.56232 2.75827 2.76853 2.82656 3.00312L3.39609 5H15.5883C15.6754 4.99991 15.7614 5.02006 15.8394 5.05886C15.9174 5.09766 15.9853 5.15405 16.0378 5.22359C16.0903 5.29313 16.1259 5.37391 16.1419 5.45957C16.1578 5.54523 16.1536 5.63342 16.1297 5.71719ZM14.843 6.125H3.71953L5.37188 11.9047C5.40551 12.0223 5.47656 12.1257 5.57425 12.1993C5.67195 12.2729 5.79097 12.3126 5.91328 12.3125H12.6492C12.7715 12.3126 12.8905 12.2729 12.9882 12.1993C13.0859 12.1257 13.157 12.0223 13.1906 11.9047L14.843 6.125Z" fill="#121212"/>
</svg>
