<svg width="17" height="16" viewBox="0 0 17 16" fill="none" xmlns="http://www.w3.org/2000/svg">
<path d="M15.6401 5.66157L10.3001 1.23657C10.1518 1.11117 9.97031 1.03163 9.77765 1.00765C9.58498 0.98368 9.3895 1.01631 9.21506 1.10157C9.04319 1.18227 8.89784 1.31023 8.79602 1.47049C8.69419 1.63075 8.6401 1.81669 8.64006 2.00657V3.00657C6.69416 3.68674 5.00878 4.95678 3.81863 6.63985C2.62847 8.32292 1.99278 10.3352 2.00006 12.3966C1.99943 12.9174 2.04124 13.4375 2.12506 13.9516C2.14137 14.0549 2.18971 14.1506 2.26326 14.2251C2.33682 14.2995 2.43189 14.349 2.53506 14.3666H2.62006C2.71051 14.3663 2.79921 14.3416 2.87669 14.2949C2.95418 14.2482 3.01755 14.1814 3.06006 14.1016C3.63185 13.0258 4.42455 12.0831 5.38618 11.3352C6.34782 10.5872 7.45668 10.051 8.64006 9.76157V10.8416C8.6401 11.0314 8.69419 11.2174 8.79602 11.3776C8.89784 11.5379 9.04319 11.6659 9.21506 11.7466C9.3527 11.8115 9.50286 11.8457 9.65506 11.8466C9.89169 11.8454 10.1202 11.7604 10.3001 11.6066L12.7301 9.60657L12.7751 9.57157L15.6401 7.19657C15.7516 7.1027 15.8412 6.9856 15.9027 6.85345C15.9642 6.72131 15.996 6.57732 15.996 6.43157C15.996 6.28582 15.9642 6.14183 15.9027 6.00969C15.8412 5.87754 15.7516 5.76044 15.6401 5.66657V5.66157ZM12.1751 8.76157L12.1301 8.79657L9.63006 10.8466V9.13657C9.6329 9.12339 9.6329 9.10975 9.63006 9.09657C9.63006 9.09657 9.63006 9.06657 9.63006 9.05157C9.63006 9.03657 9.63006 9.01657 9.60506 8.99657C9.59557 8.96577 9.58388 8.93569 9.57006 8.90657C9.55195 8.87575 9.52821 8.84861 9.50006 8.82657C9.48417 8.80144 9.46384 8.77942 9.44006 8.76157C9.41389 8.73867 9.3854 8.71856 9.35506 8.70157L9.28006 8.66657H9.17006H9.12006H9.08006H9.03506C6.62763 9.08183 4.46925 10.3997 3.00006 12.3516C3.00205 10.4499 3.61277 8.59877 4.74282 7.06925C5.87286 5.53973 7.46287 4.41214 9.28006 3.85157H9.30506C9.33808 3.83961 9.36989 3.82454 9.40006 3.80657C9.43515 3.78772 9.4686 3.76598 9.50006 3.74157L9.56006 3.67157C9.58129 3.64804 9.59822 3.62096 9.61006 3.59157C9.62305 3.56438 9.6331 3.53588 9.64006 3.50657C9.64289 3.47163 9.64289 3.43651 9.64006 3.40157V2.03157L15.0001 6.42657L12.1751 8.76157Z" fill="#101010" stroke="#101010" stroke-width="0.0002"/>
</svg>
