<?xml version="1.0" encoding="UTF-8"?>
<svg width="50px" height="23px" viewBox="0 0 50 23" version="1.1" xmlns="http://www.w3.org/2000/svg" xmlns:xlink="http://www.w3.org/1999/xlink">
    <title>noun-shipping-1541532</title>
    <g id="Symbols" stroke="none" stroke-width="1" fill="none" fill-rule="evenodd">
        <g id="OneTime_Purchase_Box-Copy" transform="translate(-41.000000, -37.000000)" fill="#000000" fill-rule="nonzero">
            <g id="noun-shipping-1541532" transform="translate(41.000000, 37.000000)">
                <path d="M50,11.4300954 L43.6634243,4.50876859 L36.118006,4.50876859 L36.118006,0 L11.885377,0 L11.885377,3.82662889 L4.65091347,3.82662889 C4.29095655,3.82662889 4,4.11656432 4,4.47525794 C4,4.83395157 4.29095655,5.123887 4.65091347,5.123887 L11.8858418,5.123887 L11.8858418,13.067555 L9.77829793,13.067555 C9.41834102,13.067555 9.12738446,13.3574904 9.12738446,13.716184 C9.12738446,14.0748776 9.41834102,14.3648131 9.77829793,14.3648131 L11.8858418,14.3648131 L11.8853879,20.2544195 L14.9284688,20.2544195 C15.1522493,21.8022317 16.4790596,23 18.0935611,23 C19.7085274,23 21.0353144,21.8017685 21.2591182,20.2544195 L39.4504392,20.2544195 C39.6742197,21.8022317 41.00103,23 42.6159963,23 C44.230614,23 45.5577496,21.8017685 45.7810886,20.2544195 L49.9983841,20.2544195 L49.998838,11.4301418 L50,11.4300954 Z M18.094596,21.7027187 C17.0415213,21.7027187 16.1844782,20.849193 16.1844782,19.800231 C16.1844782,18.7504005 17.04101,17.8964695 18.094596,17.8964695 C19.148182,17.8964695 20.0050623,18.7499952 20.0050623,19.800231 C20.0050623,20.8496099 19.1480774,21.7027187 18.094596,21.7027187 Z M34.8171319,18.9571383 L21.1785797,18.9571383 C20.8045508,17.6033961 19.5708179,16.6001609 18.0947122,16.6001609 C16.6190713,16.6001609 15.3858264,17.6034077 15.0117742,18.9571383 L13.1884589,18.9571383 L13.188005,1.2963086 L34.8165618,1.2963086 L34.8171319,18.9571383 Z M42.618077,21.7027187 C41.5645491,21.7027187 40.7076106,20.849193 40.7076106,19.800231 C40.7076106,18.7504005 41.5641424,17.8964695 42.618077,17.8964695 C43.6711517,17.8964695 44.5281947,18.7499952 44.5281947,19.800231 C44.5277409,20.8496099 43.6712098,21.7027187 42.618077,21.7027187 Z M48.6991259,18.9571383 L45.7014797,18.9571383 C45.3274509,17.6033961 44.0937179,16.6001609 42.6185418,16.6001609 C41.1419713,16.6001609 39.9087264,17.6034077 39.5346742,18.9571383 L36.1194004,18.9571383 L36.1194004,5.80530878 L43.0900869,5.80530878 L48.6999393,11.9324078 L48.6999393,18.9569067 L48.6991259,18.9571383 Z" id="Shape"></path>
                <path d="M8,8.5 C8,8.22349864 7.73004938,8 7.39607995,8 L0.603920047,8 C0.269950622,8 0,8.22349864 0,8.5 C0,8.77650136 0.269950622,9 0.603920047,9 L7.39607995,9 C7.73004938,9 8,8.77615324 8,8.5 Z" id="Path"></path>
                <path d="M7.36660711,13 L6.63339289,13 C6.2831249,13 6,13.2234986 6,13.5 C6,13.7765014 6.2831249,14 6.63339289,14 L7.36660711,14 C7.7168751,14 8,13.7765014 8,13.5 C8,13.2231505 7.7168751,13 7.36660711,13 Z" id="Path"></path>
            </g>
        </g>
    </g>
</svg>