<svg width="50" height="20" viewBox="0 0 50 20" fill="none" xmlns="http://www.w3.org/2000/svg">
<path d="M10.5 17C14.6421 17 18 13.6421 18 9.5C18 5.35786 14.6421 2 10.5 2C6.35786 2 3 5.35786 3 9.5C3 13.6421 6.35786 17 10.5 17Z" fill="url(#paint0_linear_6902_551)"/>
<path d="M7.65031 8.79785H6.77406C6.35087 8.79785 6.00781 9.14091 6.00781 9.5641V12.8845C6.00781 13.3077 6.35087 13.6508 6.77406 13.6508H7.65031C8.0735 13.6508 8.41656 13.3077 8.41656 12.8845V9.5641C8.41656 9.14091 8.0735 8.79785 7.65031 8.79785Z" fill="white"/>
<path d="M15.0828 9.73186C15.0828 9.42007 14.9445 9.14391 14.7315 8.95632C14.892 8.79461 14.9915 8.57232 14.9915 8.32703C14.9915 7.83416 14.5904 7.43307 14.0976 7.43307H12.5651V6.41141C12.5651 5.93724 12.4331 5.54261 12.1729 5.2387C11.9195 4.94286 11.5177 4.83986 11.1475 4.97666C10.7674 5.1172 10.5217 5.46778 10.5217 5.86961V7.17766C10.5217 7.8837 9.51723 8.54282 9.13011 8.73724C9.00415 8.80049 8.92594 9.09503 8.98919 9.22103V11.7752L9.78653 12.6783C10.0277 12.9195 10.3484 13.0524 10.6895 13.0524H13.5868C14.0797 13.0524 14.4807 12.6513 14.4807 12.1584C14.4807 12.0889 14.4702 12.0214 14.4547 11.9552C14.7702 11.8169 14.9916 11.5025 14.9916 11.1367C14.9916 10.8914 14.8921 10.6691 14.7316 10.5074C14.9446 10.3199 15.0828 10.0437 15.0828 9.73186Z" fill="white"/>
<path d="M25.5 17C29.6421 17 33 13.6421 33 9.5C33 5.35786 29.6421 2 25.5 2C21.3579 2 18 5.35786 18 9.5C18 13.6421 21.3579 17 25.5 17Z" fill="url(#paint1_linear_6902_551)"/>
<path d="M28.9809 10.2373C26.8338 12.7447 25.7424 13.483 25.696 13.5115C25.6389 13.5543 25.5676 13.5722 25.4999 13.5722C25.4321 13.5722 25.3607 13.5543 25.3001 13.5115C25.2573 13.483 24.166 12.7447 22.0188 10.2373C20.9702 9.01394 21.3233 7.5409 22.215 6.71703C22.9961 5.99299 24.3229 5.70407 25.4999 6.67061C26.6768 5.70407 28.0036 5.99299 28.7847 6.71703C29.6764 7.5409 30.0295 9.01394 28.9809 10.2373Z" fill="white"/>
<path d="M44.6667 11.333C44.6667 13.5122 42.95 14.9788 40.3958 14.9788C37.8417 14.9788 36.125 13.5122 36.125 11.333C36.125 11.208 36.1833 11.0872 36.2833 11.008C36.3292 10.9705 37.4708 10.083 40.5 10.083C43.5042 10.083 44.4458 10.9413 44.5458 11.0372C44.6208 11.1163 44.6667 11.2205 44.6667 11.333Z" fill="url(#paint2_linear_6902_551)"/>
<path d="M43.3785 14.0667C43.1785 14.2208 42.9618 14.3583 42.7202 14.4792C42.0743 14.8 41.2868 14.9792 40.3952 14.9792C39.6368 14.9792 38.9577 14.85 38.3702 14.6125C38.091 14.5 37.8327 14.3625 37.6035 14.2042V14.2C37.6368 14.075 37.666 13.9667 37.6827 13.9083C38.0243 12.6375 39.1827 11.75 40.4993 11.75C41.7785 11.75 42.8993 12.5708 43.2785 13.7875C43.291 13.8292 43.3285 13.9292 43.3785 14.0667Z" fill="url(#paint3_linear_6902_551)"/>
<path d="M47.9998 10.4999C47.9998 12.0346 47.5388 13.4614 46.7467 14.6503C46.6883 14.7393 46.627 14.8283 46.5629 14.9144C45.1988 16.7846 42.9916 17.9998 40.4999 17.9998C37.216 17.9998 34.4253 15.8889 33.4099 12.9493L33.4085 12.9478C33.1444 12.1805 33 11.3562 33 10.4999C33 9.10963 33.3778 7.80688 34.0373 6.69088C35.3429 4.48221 37.7485 3 40.5 3C43.3972 3 45.9108 4.64267 47.1596 7.04829C47.6964 8.08117 47.9998 9.2555 47.9998 10.4999Z" fill="url(#paint4_radial_6902_551)"/>
<path d="M43.1774 14.3645C42.855 14.8969 42.4961 15.3506 42.1227 15.7387C41.7098 16.1675 41.2766 16.5148 40.8506 16.7963C39.1685 17.9065 37.5711 17.9999 37.5711 17.9999C37.5711 17.9999 36.6461 17.1202 35.8511 15.9721C35.4076 15.3346 35.0049 14.6139 34.8226 13.9166C34.7321 13.5694 34.665 13.2295 34.6271 12.9027C34.4024 11.0412 35.0413 9.58091 36.9058 9.43941C38.9263 9.28624 39.4121 11.4482 39.4121 11.4482C41.1991 9.56779 44.8843 11.5591 43.1774 14.3645Z" fill="url(#paint5_radial_6902_551)"/>
<g style="mix-blend-mode:multiply" opacity="0.2">
<path d="M42.1234 15.7387C41.7106 16.1675 41.2773 16.5148 40.8513 16.7963C40.5566 16.6402 40.2954 16.382 40.1598 15.9706C39.9818 15.4323 40.5449 15.4513 40.5449 15.4513L42.1234 15.7387Z" fill="#B81219"/>
</g>
<path d="M41.7695 8.35938H39.2284C39.0492 8.35938 38.9284 8.54262 38.999 8.70733C39.0195 8.75512 39.0534 8.79637 39.0985 8.82225C39.2348 8.90062 39.5985 9.03317 40.4989 9.03317C41.3993 9.03317 41.763 8.90062 41.8993 8.82225C41.9444 8.79633 41.9784 8.75512 41.9989 8.70733C42.0695 8.54262 41.9487 8.35938 41.7695 8.35938Z" fill="url(#paint6_linear_6902_551)"/>
<path d="M36.6523 6.66205C36.6523 6.07022 37.0519 5.58984 37.5458 5.58984C38.0397 5.58984 38.4393 6.07022 38.4393 6.66205C38.4393 7.25389 38.0397 7.73422 37.5458 7.73422C37.0519 7.73422 36.6523 7.25389 36.6523 6.66205Z" fill="url(#paint7_linear_6902_551)"/>
<path d="M38.8594 4.74279C38.0339 4.69971 37.1992 4.84829 36.4513 5.21588C36.3055 5.28321 36.1728 5.08754 36.2876 4.97709C36.9653 4.28567 38.0085 3.99034 38.9575 4.16754C39.3145 4.25646 39.223 4.77475 38.8594 4.74279Z" fill="#DE8009"/>
<path d="M44.2752 6.66205C44.2752 7.25389 43.8757 7.73422 43.3818 7.73422C42.8879 7.73422 42.4883 7.25389 42.4883 6.66205C42.4883 6.07022 42.8879 5.58984 43.3818 5.58984C43.8757 5.58984 44.2752 6.07022 44.2752 6.66205Z" fill="url(#paint8_linear_6902_551)"/>
<path d="M41.9717 4.16763C42.6926 4.02963 43.4485 4.17484 44.0797 4.53792C44.29 4.65355 44.4751 4.81109 44.6417 4.97713C44.6993 5.03451 44.6994 5.12771 44.642 5.1853C44.5947 5.23296 44.524 5.24046 44.4676 5.21126C43.7229 4.84621 42.8913 4.70034 42.0699 4.74284C41.7038 4.77392 41.6169 4.25484 41.9717 4.16763Z" fill="#DE8009"/>
<g style="mix-blend-mode:multiply" opacity="0.2">
<path d="M39.3857 14.1554C38.1424 16.2283 35.3986 15.2796 35.2142 14.9145C35.0474 14.5841 34.911 14.2475 34.8244 13.9162C34.7339 13.569 34.6669 13.2291 34.6289 12.9023L38.9092 13.0788C38.9092 13.0788 39.917 13.2697 39.3857 14.1554Z" fill="#B81219"/>
</g>
<path d="M36.5858 14.8906C35.0045 14.7038 34.383 14.1845 33.4099 12.9488L33.4085 12.9474C33.1444 12.1801 33 11.3558 33 10.4995C33 9.10918 33.3778 7.80643 34.0373 6.69043C33.9789 7.83564 33.9599 9.09314 34.0912 9.74818C34.1962 10.2617 34.2429 10.978 35.5836 11.226C36.9243 11.4755 37.7267 10.978 38.017 11.226C38.3073 11.4755 37.1592 12.1115 37.5472 12.1523C37.9338 12.1932 38.901 12.0415 39.1023 12.8993C39.3022 13.7556 38.44 15.1094 36.5858 14.8906Z" fill="url(#paint9_linear_6902_551)"/>
<path d="M47.9991 10.4996C47.9991 12.0343 47.5381 13.461 46.746 14.65L46.5622 14.914C45.0665 16.4482 43.6161 16.5799 42.438 16.6719C40.8508 16.7959 40.6276 15.9396 40.4992 15.4421C40.3694 14.9446 40.6866 14.3226 41.3745 14.294C41.8316 14.275 42.1068 14.0183 41.7334 13.8111C41.3599 13.6039 41.2636 13.1619 41.5131 13.1473C41.7611 13.1342 43.1441 13.6039 44.2908 13.1473C45.4374 12.6907 46.2806 10.4995 46.2806 10.4995C46.7839 9.50164 47.0568 7.80648 47.1588 7.04785C47.6957 8.08073 47.9991 9.25514 47.9991 10.4996Z" fill="url(#paint10_linear_6902_551)"/>
<defs>
<linearGradient id="paint0_linear_6902_551" x1="10.5" y1="17" x2="10.5" y2="2" gradientUnits="userSpaceOnUse">
<stop stop-color="#0064E1"/>
<stop offset="0.9944" stop-color="#26B7FF"/>
</linearGradient>
<linearGradient id="paint1_linear_6902_551" x1="25.5" y1="17" x2="25.5" y2="2" gradientUnits="userSpaceOnUse">
<stop stop-color="#DD142E"/>
<stop offset="1" stop-color="#F75E7A"/>
</linearGradient>
<linearGradient id="paint2_linear_6902_551" x1="40.3958" y1="10.0343" x2="40.3958" y2="14.4272" gradientUnits="userSpaceOnUse">
<stop stop-color="#8B3A0E"/>
<stop offset="1" stop-color="#472315"/>
</linearGradient>
<linearGradient id="paint3_linear_6902_551" x1="40.491" y1="14.9792" x2="40.491" y2="11.75" gradientUnits="userSpaceOnUse">
<stop stop-color="#D91F3A"/>
<stop offset="1" stop-color="#F85874"/>
</linearGradient>
<radialGradient id="paint4_radial_6902_551" cx="0" cy="0" r="1" gradientUnits="userSpaceOnUse" gradientTransform="translate(40.4999 10.4999) scale(7.5)">
<stop offset="0.0056" stop-color="#FEEB72"/>
<stop offset="0.3156" stop-color="#FDE86F"/>
<stop offset="0.5153" stop-color="#FCDF68"/>
<stop offset="0.6839" stop-color="#FBD05C"/>
<stop offset="0.8352" stop-color="#F9BB4B"/>
<stop offset="0.9737" stop-color="#F6A134"/>
<stop offset="1" stop-color="#F69B30"/>
</radialGradient>
<radialGradient id="paint5_radial_6902_551" cx="0" cy="0" r="1" gradientUnits="userSpaceOnUse" gradientTransform="translate(40.7752 11.632) scale(7.14625)">
<stop stop-color="#FA6080"/>
<stop offset="0.1781" stop-color="#F65979"/>
<stop offset="0.431" stop-color="#ED4866"/>
<stop offset="0.727" stop-color="#DF2C48"/>
<stop offset="1" stop-color="#CF0D26"/>
</radialGradient>
<linearGradient id="paint6_linear_6902_551" x1="40.4991" y1="8.35954" x2="40.4991" y2="9.03329" gradientUnits="userSpaceOnUse">
<stop stop-color="#8B3A0E"/>
<stop offset="1" stop-color="#472315"/>
</linearGradient>
<linearGradient id="paint7_linear_6902_551" x1="37.5461" y1="5.58972" x2="37.5461" y2="7.7343" gradientUnits="userSpaceOnUse">
<stop offset="0.0056" stop-color="#3C466E"/>
<stop offset="1" stop-color="#252949"/>
</linearGradient>
<linearGradient id="paint8_linear_6902_551" x1="43.382" y1="5.58972" x2="43.382" y2="7.7343" gradientUnits="userSpaceOnUse">
<stop offset="0.0056" stop-color="#3C466E"/>
<stop offset="1" stop-color="#252949"/>
</linearGradient>
<linearGradient id="paint9_linear_6902_551" x1="36.847" y1="14.2448" x2="33.9999" y2="7.77693" gradientUnits="userSpaceOnUse">
<stop offset="0.0056" stop-color="#FEEB72"/>
<stop offset="0.3156" stop-color="#FDE86F"/>
<stop offset="0.5153" stop-color="#FCDF68"/>
<stop offset="0.6839" stop-color="#FBD05C"/>
<stop offset="0.8352" stop-color="#F9BB4B"/>
<stop offset="0.9737" stop-color="#F6A134"/>
<stop offset="1" stop-color="#F69B30"/>
</linearGradient>
<linearGradient id="paint10_linear_6902_551" x1="40.4709" y1="11.8662" x2="47.9992" y2="11.8662" gradientUnits="userSpaceOnUse">
<stop offset="0.0056" stop-color="#FEEB72"/>
<stop offset="0.3156" stop-color="#FDE86F"/>
<stop offset="0.5153" stop-color="#FCDF68"/>
<stop offset="0.6839" stop-color="#FBD05C"/>
<stop offset="0.8352" stop-color="#F9BB4B"/>
<stop offset="0.9737" stop-color="#F6A134"/>
<stop offset="1" stop-color="#F69B30"/>
</linearGradient>
</defs>
</svg>
